<svg xmlns="http://www.w3.org/2000/svg" viewBox="483 11 1700 1700">
<rect x="483" y="11" width="1700" height="1700" rx="220" fill="#152a45"/>
<g transform="matrix(1.3333333,0,0,-1.3333333,0,2666.6667)">
<g transform="translate(722.8414,1922.7976)"><path d="m 0,0 h 556.952 l 201.282,-199.175 v -154.518 c 0,-4.584 -3.715,-8.299 -8.299,-8.299 H 527.313 c -4.584,0 -8.299,3.715 -8.299,8.299 v 65.733 L 409.942,-183.104 H 144.639 L 38.992,-289.014 v -78.511 L 437.868,-770.09 374.111,-834.637 H 182.577 l -386.494,383.332 v 252.13 z" fill="#fff"/></g>
<g transform="translate(1241.4932,1099.5763)"><path d="m 0,0 v 89.631 l -395.729,397.903 56.291,56.05 h 203.421 L 238.211,169.115 V -113.79 L 38.413,-311.413 H -63.781 l -201.246,201.73 h 156.552 z" fill="#fff"/></g>
<g transform="translate(929.1288,989.8932)"><path d="m 0,0 h -59.97 l -109.767,110.013 v 68.437 c 0,4.587 -3.719,8.307 -8.307,8.307 h -223.854 c -4.587,0 -8.306,-3.72 -8.306,-8.307 V -2.776 l 199.812,-198.954 h 411.97 z" fill="#fff"/></g>
</g>
</svg>
